<?xml version="1.0" encoding="utf-8" standalone="no"?>
<!DOCTYPE svg PUBLIC "-//W3C//DTD SVG 1.1//EN"
  "http://www.w3.org/Graphics/SVG/1.1/DTD/svg11.dtd">
<svg xmlns:xlink="http://www.w3.org/1999/xlink" width="377.3935pt" height="258.741138pt" viewBox="0 0 377.3935 258.741138" xmlns="http://www.w3.org/2000/svg" version="1.1">
 <metadata>
  <rdf:RDF xmlns:dc="http://purl.org/dc/elements/1.1/" xmlns:cc="http://creativecommons.org/ns#" xmlns:rdf="http://www.w3.org/1999/02/22-rdf-syntax-ns#">
   <cc:Work>
    <dc:type rdf:resource="http://purl.org/dc/dcmitype/StillImage"/>
    <dc:date>2026-03-18T15:19:13.446169</dc:date>
    <dc:format>image/svg+xml</dc:format>
    <dc:creator>
     <cc:Agent>
      <dc:title>Matplotlib v3.10.8, https://matplotlib.org/</dc:title>
     </cc:Agent>
    </dc:creator>
   </cc:Work>
  </rdf:RDF>
 </metadata>
 <defs>
  <style type="text/css">*{stroke-linejoin: round; stroke-linecap: butt}</style>
 </defs>
 <g id="figure_1">
  <g id="patch_1">
   <path d="M 0 258.741138 
L 377.3935 258.741138 
L 377.3935 0 
L 0 0 
z
" style="fill: #ffffff"/>
  </g>
  <g id="axes_1">
   <g id="patch_2">
    <path d="M 28.1975 233.8952 
L 362.9975 233.8952 
L 362.9975 12.1352 
L 28.1975 12.1352 
z
" style="fill: #ffffff"/>
   </g>
   <g id="matplotlib.axis_1">
    <g id="xtick_1">
     <g id="line2d_1">
      <path d="M 42.754022 233.8952 
L 42.754022 12.1352 
" clip-path="url(#p45a3ad8d22)" style="fill: none; stroke: #d0d0d0; stroke-opacity: 0.7; stroke-width: 0.6; stroke-linecap: square"/>
     </g>
     <g id="line2d_2">
      <defs>
       <path id="mb034363ba0" d="M 0 0 
L 0 3.5 
" style="stroke: #333333; stroke-width: 0.8"/>
      </defs>
      <g>
       <use xlink:href="#mb034363ba0" x="42.754022" y="233.8952" style="fill: #333333; stroke: #333333; stroke-width: 0.8"/>
      </g>
     </g>
     <g id="text_1">
      <!-- 0 -->
      <g style="fill: #333333" transform="translate(39.254647 249.253481) scale(0.11 -0.11)">
       <defs>
        <path id="DejaVuSans-30" d="M 2034 4250 
Q 1547 4250 1301 3770 
Q 1056 3291 1056 2328 
Q 1056 1369 1301 889 
Q 1547 409 2034 409 
Q 2525 409 2770 889 
Q 3016 1369 3016 2328 
Q 3016 3291 2770 3770 
Q 2525 4250 2034 4250 
z
M 2034 4750 
Q 2819 4750 3233 4129 
Q 3647 3509 3647 2328 
Q 3647 1150 3233 529 
Q 2819 -91 2034 -91 
Q 1250 -91 836 529 
Q 422 1150 422 2328 
Q 422 3509 836 4129 
Q 1250 4750 2034 4750 
z
" transform="scale(0.015625)"/>
       </defs>
       <use xlink:href="#DejaVuSans-30"/>
      </g>
     </g>
    </g>
    <g id="xtick_2">
     <g id="line2d_3">
      <path d="M 71.867065 233.8952 
L 71.867065 12.1352 
" clip-path="url(#p45a3ad8d22)" style="fill: none; stroke: #d0d0d0; stroke-opacity: 0.7; stroke-width: 0.6; stroke-linecap: square"/>
     </g>
     <g id="line2d_4">
      <g>
       <use xlink:href="#mb034363ba0" x="71.867065" y="233.8952" style="fill: #333333; stroke: #333333; stroke-width: 0.8"/>
      </g>
     </g>
     <g id="text_2">
      <!-- 1 -->
      <g style="fill: #333333" transform="translate(68.36769 249.253481) scale(0.11 -0.11)">
       <defs>
        <path id="DejaVuSans-31" d="M 794 531 
L 1825 531 
L 1825 4091 
L 703 3866 
L 703 4441 
L 1819 4666 
L 2450 4666 
L 2450 531 
L 3481 531 
L 3481 0 
L 794 0 
L 794 531 
z
" transform="scale(0.015625)"/>
       </defs>
       <use xlink:href="#DejaVuSans-31"/>
      </g>
     </g>
    </g>
    <g id="xtick_3">
     <g id="line2d_5">
      <path d="M 100.980109 233.8952 
L 100.980109 12.1352 
" clip-path="url(#p45a3ad8d22)" style="fill: none; stroke: #d0d0d0; stroke-opacity: 0.7; stroke-width: 0.6; stroke-linecap: square"/>
     </g>
     <g id="line2d_6">
      <g>
       <use xlink:href="#mb034363ba0" x="100.980109" y="233.8952" style="fill: #333333; stroke: #333333; stroke-width: 0.8"/>
      </g>
     </g>
     <g id="text_3">
      <!-- 2 -->
      <g style="fill: #333333" transform="translate(97.480734 249.253481) scale(0.11 -0.11)">
       <defs>
        <path id="DejaVuSans-32" d="M 1228 531 
L 3431 531 
L 3431 0 
L 469 0 
L 469 531 
Q 828 903 1448 1529 
Q 2069 2156 2228 2338 
Q 2531 2678 2651 2914 
Q 2772 3150 2772 3378 
Q 2772 3750 2511 3984 
Q 2250 4219 1831 4219 
Q 1534 4219 1204 4116 
Q 875 4013 500 3803 
L 500 4441 
Q 881 4594 1212 4672 
Q 1544 4750 1819 4750 
Q 2544 4750 2975 4387 
Q 3406 4025 3406 3419 
Q 3406 3131 3298 2873 
Q 3191 2616 2906 2266 
Q 2828 2175 2409 1742 
Q 1991 1309 1228 531 
z
" transform="scale(0.015625)"/>
       </defs>
       <use xlink:href="#DejaVuSans-32"/>
      </g>
     </g>
    </g>
    <g id="xtick_4">
     <g id="line2d_7">
      <path d="M 130.093152 233.8952 
L 130.093152 12.1352 
" clip-path="url(#p45a3ad8d22)" style="fill: none; stroke: #d0d0d0; stroke-opacity: 0.7; stroke-width: 0.6; stroke-linecap: square"/>
     </g>
     <g id="line2d_8">
      <g>
       <use xlink:href="#mb034363ba0" x="130.093152" y="233.8952" style="fill: #333333; stroke: #333333; stroke-width: 0.8"/>
      </g>
     </g>
     <g id="text_4">
      <!-- 3 -->
      <g style="fill: #333333" transform="translate(126.593777 249.253481) scale(0.11 -0.11)">
       <defs>
        <path id="DejaVuSans-33" d="M 2597 2516 
Q 3050 2419 3304 2112 
Q 3559 1806 3559 1356 
Q 3559 666 3084 287 
Q 2609 -91 1734 -91 
Q 1441 -91 1130 -33 
Q 819 25 488 141 
L 488 750 
Q 750 597 1062 519 
Q 1375 441 1716 441 
Q 2309 441 2620 675 
Q 2931 909 2931 1356 
Q 2931 1769 2642 2001 
Q 2353 2234 1838 2234 
L 1294 2234 
L 1294 2753 
L 1863 2753 
Q 2328 2753 2575 2939 
Q 2822 3125 2822 3475 
Q 2822 3834 2567 4026 
Q 2313 4219 1838 4219 
Q 1578 4219 1281 4162 
Q 984 4106 628 3988 
L 628 4550 
Q 988 4650 1302 4700 
Q 1616 4750 1894 4750 
Q 2613 4750 3031 4423 
Q 3450 4097 3450 3541 
Q 3450 3153 3228 2886 
Q 3006 2619 2597 2516 
z
" transform="scale(0.015625)"/>
       </defs>
       <use xlink:href="#DejaVuSans-33"/>
      </g>
     </g>
    </g>
    <g id="xtick_5">
     <g id="line2d_9">
      <path d="M 159.206196 233.8952 
L 159.206196 12.1352 
" clip-path="url(#p45a3ad8d22)" style="fill: none; stroke: #d0d0d0; stroke-opacity: 0.7; stroke-width: 0.6; stroke-linecap: square"/>
     </g>
     <g id="line2d_10">
      <g>
       <use xlink:href="#mb034363ba0" x="159.206196" y="233.8952" style="fill: #333333; stroke: #333333; stroke-width: 0.8"/>
      </g>
     </g>
     <g id="text_5">
      <!-- 4 -->
      <g style="fill: #333333" transform="translate(155.706821 249.253481) scale(0.11 -0.11)">
       <defs>
        <path id="DejaVuSans-34" d="M 2419 4116 
L 825 1625 
L 2419 1625 
L 2419 4116 
z
M 2253 4666 
L 3047 4666 
L 3047 1625 
L 3713 1625 
L 3713 1100 
L 3047 1100 
L 3047 0 
L 2419 0 
L 2419 1100 
L 313 1100 
L 313 1709 
L 2253 4666 
z
" transform="scale(0.015625)"/>
       </defs>
       <use xlink:href="#DejaVuSans-34"/>
      </g>
     </g>
    </g>
    <g id="xtick_6">
     <g id="line2d_11">
      <path d="M 188.319239 233.8952 
L 188.319239 12.1352 
" clip-path="url(#p45a3ad8d22)" style="fill: none; stroke: #d0d0d0; stroke-opacity: 0.7; stroke-width: 0.6; stroke-linecap: square"/>
     </g>
     <g id="line2d_12">
      <g>
       <use xlink:href="#mb034363ba0" x="188.319239" y="233.8952" style="fill: #333333; stroke: #333333; stroke-width: 0.8"/>
      </g>
     </g>
     <g id="text_6">
      <!-- 5 -->
      <g style="fill: #333333" transform="translate(184.819864 249.253481) scale(0.11 -0.11)">
       <defs>
        <path id="DejaVuSans-35" d="M 691 4666 
L 3169 4666 
L 3169 4134 
L 1269 4134 
L 1269 2991 
Q 1406 3038 1543 3061 
Q 1681 3084 1819 3084 
Q 2600 3084 3056 2656 
Q 3513 2228 3513 1497 
Q 3513 744 3044 326 
Q 2575 -91 1722 -91 
Q 1428 -91 1123 -41 
Q 819 9 494 109 
L 494 744 
Q 775 591 1075 516 
Q 1375 441 1709 441 
Q 2250 441 2565 725 
Q 2881 1009 2881 1497 
Q 2881 1984 2565 2268 
Q 2250 2553 1709 2553 
Q 1456 2553 1204 2497 
Q 953 2441 691 2322 
L 691 4666 
z
" transform="scale(0.015625)"/>
       </defs>
       <use xlink:href="#DejaVuSans-35"/>
      </g>
     </g>
    </g>
    <g id="xtick_7">
     <g id="line2d_13">
      <path d="M 217.432283 233.8952 
L 217.432283 12.1352 
" clip-path="url(#p45a3ad8d22)" style="fill: none; stroke: #d0d0d0; stroke-opacity: 0.7; stroke-width: 0.6; stroke-linecap: square"/>
     </g>
     <g id="line2d_14">
      <g>
       <use xlink:href="#mb034363ba0" x="217.432283" y="233.8952" style="fill: #333333; stroke: #333333; stroke-width: 0.8"/>
      </g>
     </g>
     <g id="text_7">
      <!-- 6 -->
      <g style="fill: #333333" transform="translate(213.932908 249.253481) scale(0.11 -0.11)">
       <defs>
        <path id="DejaVuSans-36" d="M 2113 2584 
Q 1688 2584 1439 2293 
Q 1191 2003 1191 1497 
Q 1191 994 1439 701 
Q 1688 409 2113 409 
Q 2538 409 2786 701 
Q 3034 994 3034 1497 
Q 3034 2003 2786 2293 
Q 2538 2584 2113 2584 
z
M 3366 4563 
L 3366 3988 
Q 3128 4100 2886 4159 
Q 2644 4219 2406 4219 
Q 1781 4219 1451 3797 
Q 1122 3375 1075 2522 
Q 1259 2794 1537 2939 
Q 1816 3084 2150 3084 
Q 2853 3084 3261 2657 
Q 3669 2231 3669 1497 
Q 3669 778 3244 343 
Q 2819 -91 2113 -91 
Q 1303 -91 875 529 
Q 447 1150 447 2328 
Q 447 3434 972 4092 
Q 1497 4750 2381 4750 
Q 2619 4750 2861 4703 
Q 3103 4656 3366 4563 
z
" transform="scale(0.015625)"/>
       </defs>
       <use xlink:href="#DejaVuSans-36"/>
      </g>
     </g>
    </g>
    <g id="xtick_8">
     <g id="line2d_15">
      <path d="M 246.545326 233.8952 
L 246.545326 12.1352 
" clip-path="url(#p45a3ad8d22)" style="fill: none; stroke: #d0d0d0; stroke-opacity: 0.7; stroke-width: 0.6; stroke-linecap: square"/>
     </g>
     <g id="line2d_16">
      <g>
       <use xlink:href="#mb034363ba0" x="246.545326" y="233.8952" style="fill: #333333; stroke: #333333; stroke-width: 0.8"/>
      </g>
     </g>
     <g id="text_8">
      <!-- 7 -->
      <g style="fill: #333333" transform="translate(243.045951 249.253481) scale(0.11 -0.11)">
       <defs>
        <path id="DejaVuSans-37" d="M 525 4666 
L 3525 4666 
L 3525 4397 
L 1831 0 
L 1172 0 
L 2766 4134 
L 525 4134 
L 525 4666 
z
" transform="scale(0.015625)"/>
       </defs>
       <use xlink:href="#DejaVuSans-37"/>
      </g>
     </g>
    </g>
    <g id="xtick_9">
     <g id="line2d_17">
      <path d="M 275.65837 233.8952 
L 275.65837 12.1352 
" clip-path="url(#p45a3ad8d22)" style="fill: none; stroke: #d0d0d0; stroke-opacity: 0.7; stroke-width: 0.6; stroke-linecap: square"/>
     </g>
     <g id="line2d_18">
      <g>
       <use xlink:href="#mb034363ba0" x="275.65837" y="233.8952" style="fill: #333333; stroke: #333333; stroke-width: 0.8"/>
      </g>
     </g>
     <g id="text_9">
      <!-- 8 -->
      <g style="fill: #333333" transform="translate(272.158995 249.253481) scale(0.11 -0.11)">
       <defs>
        <path id="DejaVuSans-38" d="M 2034 2216 
Q 1584 2216 1326 1975 
Q 1069 1734 1069 1313 
Q 1069 891 1326 650 
Q 1584 409 2034 409 
Q 2484 409 2743 651 
Q 3003 894 3003 1313 
Q 3003 1734 2745 1975 
Q 2488 2216 2034 2216 
z
M 1403 2484 
Q 997 2584 770 2862 
Q 544 3141 544 3541 
Q 544 4100 942 4425 
Q 1341 4750 2034 4750 
Q 2731 4750 3128 4425 
Q 3525 4100 3525 3541 
Q 3525 3141 3298 2862 
Q 3072 2584 2669 2484 
Q 3125 2378 3379 2068 
Q 3634 1759 3634 1313 
Q 3634 634 3220 271 
Q 2806 -91 2034 -91 
Q 1263 -91 848 271 
Q 434 634 434 1313 
Q 434 1759 690 2068 
Q 947 2378 1403 2484 
z
M 1172 3481 
Q 1172 3119 1398 2916 
Q 1625 2713 2034 2713 
Q 2441 2713 2670 2916 
Q 2900 3119 2900 3481 
Q 2900 3844 2670 4047 
Q 2441 4250 2034 4250 
Q 1625 4250 1398 4047 
Q 1172 3844 1172 3481 
z
" transform="scale(0.015625)"/>
       </defs>
       <use xlink:href="#DejaVuSans-38"/>
      </g>
     </g>
    </g>
    <g id="xtick_10">
     <g id="line2d_19">
      <path d="M 304.771413 233.8952 
L 304.771413 12.1352 
" clip-path="url(#p45a3ad8d22)" style="fill: none; stroke: #d0d0d0; stroke-opacity: 0.7; stroke-width: 0.6; stroke-linecap: square"/>
     </g>
     <g id="line2d_20">
      <g>
       <use xlink:href="#mb034363ba0" x="304.771413" y="233.8952" style="fill: #333333; stroke: #333333; stroke-width: 0.8"/>
      </g>
     </g>
     <g id="text_10">
      <!-- 9 -->
      <g style="fill: #333333" transform="translate(301.272038 249.253481) scale(0.11 -0.11)">
       <defs>
        <path id="DejaVuSans-39" d="M 703 97 
L 703 672 
Q 941 559 1184 500 
Q 1428 441 1663 441 
Q 2288 441 2617 861 
Q 2947 1281 2994 2138 
Q 2813 1869 2534 1725 
Q 2256 1581 1919 1581 
Q 1219 1581 811 2004 
Q 403 2428 403 3163 
Q 403 3881 828 4315 
Q 1253 4750 1959 4750 
Q 2769 4750 3195 4129 
Q 3622 3509 3622 2328 
Q 3622 1225 3098 567 
Q 2575 -91 1691 -91 
Q 1453 -91 1209 -44 
Q 966 3 703 97 
z
M 1959 2075 
Q 2384 2075 2632 2365 
Q 2881 2656 2881 3163 
Q 2881 3666 2632 3958 
Q 2384 4250 1959 4250 
Q 1534 4250 1286 3958 
Q 1038 3666 1038 3163 
Q 1038 2656 1286 2365 
Q 1534 2075 1959 2075 
z
" transform="scale(0.015625)"/>
       </defs>
       <use xlink:href="#DejaVuSans-39"/>
      </g>
     </g>
    </g>
    <g id="xtick_11">
     <g id="line2d_21">
      <path d="M 333.884457 233.8952 
L 333.884457 12.1352 
" clip-path="url(#p45a3ad8d22)" style="fill: none; stroke: #d0d0d0; stroke-opacity: 0.7; stroke-width: 0.6; stroke-linecap: square"/>
     </g>
     <g id="line2d_22">
      <g>
       <use xlink:href="#mb034363ba0" x="333.884457" y="233.8952" style="fill: #333333; stroke: #333333; stroke-width: 0.8"/>
      </g>
     </g>
     <g id="text_11">
      <!-- 10 -->
      <g style="fill: #333333" transform="translate(326.885707 249.253481) scale(0.11 -0.11)">
       <use xlink:href="#DejaVuSans-31"/>
       <use xlink:href="#DejaVuSans-30" transform="translate(63.623047 0)"/>
      </g>
     </g>
    </g>
    <g id="text_12">
     <!-- t, с -->
     <g style="fill: #333333" transform="translate(359.43975 248.208369) scale(0.13 -0.13)">
      <defs>
       <path id="DejaVuSans-74" d="M 1172 4494 
L 1172 3500 
L 2356 3500 
L 2356 3053 
L 1172 3053 
L 1172 1153 
Q 1172 725 1289 603 
Q 1406 481 1766 481 
L 2356 481 
L 2356 0 
L 1766 0 
Q 1100 0 847 248 
Q 594 497 594 1153 
L 594 3053 
L 172 3053 
L 172 3500 
L 594 3500 
L 594 4494 
L 1172 4494 
z
" transform="scale(0.015625)"/>
       <path id="DejaVuSans-2c" d="M 750 794 
L 1409 794 
L 1409 256 
L 897 -744 
L 494 -744 
L 750 256 
L 750 794 
z
" transform="scale(0.015625)"/>
       <path id="DejaVuSans-20" transform="scale(0.015625)"/>
       <path id="DejaVuSans-441" d="M 3122 3366 
L 3122 2828 
Q 2878 2963 2633 3030 
Q 2388 3097 2138 3097 
Q 1578 3097 1268 2742 
Q 959 2388 959 1747 
Q 959 1106 1268 751 
Q 1578 397 2138 397 
Q 2388 397 2633 464 
Q 2878 531 3122 666 
L 3122 134 
Q 2881 22 2623 -34 
Q 2366 -91 2075 -91 
Q 1284 -91 818 406 
Q 353 903 353 1747 
Q 353 2603 823 3093 
Q 1294 3584 2113 3584 
Q 2378 3584 2631 3529 
Q 2884 3475 3122 3366 
z
" transform="scale(0.015625)"/>
      </defs>
      <use xlink:href="#DejaVuSans-74"/>
      <use xlink:href="#DejaVuSans-2c" transform="translate(39.208984 0)"/>
      <use xlink:href="#DejaVuSans-20" transform="translate(70.996094 0)"/>
      <use xlink:href="#DejaVuSans-441" transform="translate(102.783203 0)"/>
     </g>
    </g>
   </g>
   <g id="matplotlib.axis_2">
    <g id="ytick_1">
     <g id="line2d_23">
      <path d="M 28.1975 221.5752 
L 362.9975 221.5752 
" clip-path="url(#p45a3ad8d22)" style="fill: none; stroke: #d0d0d0; stroke-opacity: 0.7; stroke-width: 0.6; stroke-linecap: square"/>
     </g>
     <g id="line2d_24">
      <defs>
       <path id="m58bed5de19" d="M 0 0 
L -3.5 0 
" style="stroke: #333333; stroke-width: 0.8"/>
      </defs>
      <g>
       <use xlink:href="#m58bed5de19" x="28.1975" y="221.5752" style="fill: #333333; stroke: #333333; stroke-width: 0.8"/>
      </g>
     </g>
     <g id="text_13">
      <!-- 0 -->
      <g style="fill: #333333" transform="translate(14.19875 225.754341) scale(0.11 -0.11)">
       <use xlink:href="#DejaVuSans-30"/>
      </g>
     </g>
    </g>
    <g id="ytick_2">
     <g id="line2d_25">
      <path d="M 28.1975 190.7752 
L 362.9975 190.7752 
" clip-path="url(#p45a3ad8d22)" style="fill: none; stroke: #d0d0d0; stroke-opacity: 0.7; stroke-width: 0.6; stroke-linecap: square"/>
     </g>
     <g id="line2d_26">
      <g>
       <use xlink:href="#m58bed5de19" x="28.1975" y="190.7752" style="fill: #333333; stroke: #333333; stroke-width: 0.8"/>
      </g>
     </g>
     <g id="text_14">
      <!-- 5 -->
      <g style="fill: #333333" transform="translate(14.19875 194.954341) scale(0.11 -0.11)">
       <use xlink:href="#DejaVuSans-35"/>
      </g>
     </g>
    </g>
    <g id="ytick_3">
     <g id="line2d_27">
      <path d="M 28.1975 159.9752 
L 362.9975 159.9752 
" clip-path="url(#p45a3ad8d22)" style="fill: none; stroke: #d0d0d0; stroke-opacity: 0.7; stroke-width: 0.6; stroke-linecap: square"/>
     </g>
     <g id="line2d_28">
      <g>
       <use xlink:href="#m58bed5de19" x="28.1975" y="159.9752" style="fill: #333333; stroke: #333333; stroke-width: 0.8"/>
      </g>
     </g>
     <g id="text_15">
      <!-- 10 -->
      <g style="fill: #333333" transform="translate(7.2 164.154341) scale(0.11 -0.11)">
       <use xlink:href="#DejaVuSans-31"/>
       <use xlink:href="#DejaVuSans-30" transform="translate(63.623047 0)"/>
      </g>
     </g>
    </g>
    <g id="ytick_4">
     <g id="line2d_29">
      <path d="M 28.1975 129.1752 
L 362.9975 129.1752 
" clip-path="url(#p45a3ad8d22)" style="fill: none; stroke: #d0d0d0; stroke-opacity: 0.7; stroke-width: 0.6; stroke-linecap: square"/>
     </g>
     <g id="line2d_30">
      <g>
       <use xlink:href="#m58bed5de19" x="28.1975" y="129.1752" style="fill: #333333; stroke: #333333; stroke-width: 0.8"/>
      </g>
     </g>
     <g id="text_16">
      <!-- 15 -->
      <g style="fill: #333333" transform="translate(7.2 133.354341) scale(0.11 -0.11)">
       <use xlink:href="#DejaVuSans-31"/>
       <use xlink:href="#DejaVuSans-35" transform="translate(63.623047 0)"/>
      </g>
     </g>
    </g>
    <g id="ytick_5">
     <g id="line2d_31">
      <path d="M 28.1975 98.3752 
L 362.9975 98.3752 
" clip-path="url(#p45a3ad8d22)" style="fill: none; stroke: #d0d0d0; stroke-opacity: 0.7; stroke-width: 0.6; stroke-linecap: square"/>
     </g>
     <g id="line2d_32">
      <g>
       <use xlink:href="#m58bed5de19" x="28.1975" y="98.3752" style="fill: #333333; stroke: #333333; stroke-width: 0.8"/>
      </g>
     </g>
     <g id="text_17">
      <!-- 20 -->
      <g style="fill: #333333" transform="translate(7.2 102.554341) scale(0.11 -0.11)">
       <use xlink:href="#DejaVuSans-32"/>
       <use xlink:href="#DejaVuSans-30" transform="translate(63.623047 0)"/>
      </g>
     </g>
    </g>
    <g id="ytick_6">
     <g id="line2d_33">
      <path d="M 28.1975 67.5752 
L 362.9975 67.5752 
" clip-path="url(#p45a3ad8d22)" style="fill: none; stroke: #d0d0d0; stroke-opacity: 0.7; stroke-width: 0.6; stroke-linecap: square"/>
     </g>
     <g id="line2d_34">
      <g>
       <use xlink:href="#m58bed5de19" x="28.1975" y="67.5752" style="fill: #333333; stroke: #333333; stroke-width: 0.8"/>
      </g>
     </g>
     <g id="text_18">
      <!-- 25 -->
      <g style="fill: #333333" transform="translate(7.2 71.754341) scale(0.11 -0.11)">
       <use xlink:href="#DejaVuSans-32"/>
       <use xlink:href="#DejaVuSans-35" transform="translate(63.623047 0)"/>
      </g>
     </g>
    </g>
    <g id="ytick_7">
     <g id="line2d_35">
      <path d="M 28.1975 36.7752 
L 362.9975 36.7752 
" clip-path="url(#p45a3ad8d22)" style="fill: none; stroke: #d0d0d0; stroke-opacity: 0.7; stroke-width: 0.6; stroke-linecap: square"/>
     </g>
     <g id="line2d_36">
      <g>
       <use xlink:href="#m58bed5de19" x="28.1975" y="36.7752" style="fill: #333333; stroke: #333333; stroke-width: 0.8"/>
      </g>
     </g>
     <g id="text_19">
      <!-- 30 -->
      <g style="fill: #333333" transform="translate(7.2 40.954341) scale(0.11 -0.11)">
       <use xlink:href="#DejaVuSans-33"/>
       <use xlink:href="#DejaVuSans-30" transform="translate(63.623047 0)"/>
      </g>
     </g>
    </g>
    <g id="text_20">
     <!-- S, м -->
     <g style="fill: #333333" transform="translate(18.797906 20.861484) rotate(-90) scale(0.13 -0.13)">
      <defs>
       <path id="DejaVuSans-53" d="M 3425 4513 
L 3425 3897 
Q 3066 4069 2747 4153 
Q 2428 4238 2131 4238 
Q 1616 4238 1336 4038 
Q 1056 3838 1056 3469 
Q 1056 3159 1242 3001 
Q 1428 2844 1947 2747 
L 2328 2669 
Q 3034 2534 3370 2195 
Q 3706 1856 3706 1288 
Q 3706 609 3251 259 
Q 2797 -91 1919 -91 
Q 1588 -91 1214 -16 
Q 841 59 441 206 
L 441 856 
Q 825 641 1194 531 
Q 1563 422 1919 422 
Q 2459 422 2753 634 
Q 3047 847 3047 1241 
Q 3047 1584 2836 1778 
Q 2625 1972 2144 2069 
L 1759 2144 
Q 1053 2284 737 2584 
Q 422 2884 422 3419 
Q 422 4038 858 4394 
Q 1294 4750 2059 4750 
Q 2388 4750 2728 4690 
Q 3069 4631 3425 4513 
z
" transform="scale(0.015625)"/>
       <path id="DejaVuSans-43c" d="M 581 3500 
L 1422 3500 
L 2416 1156 
L 3413 3500 
L 4247 3500 
L 4247 0 
L 3669 0 
L 3669 2950 
L 2703 672 
L 2128 672 
L 1159 2950 
L 1159 0 
L 581 0 
L 581 3500 
z
" transform="scale(0.015625)"/>
      </defs>
      <use xlink:href="#DejaVuSans-53"/>
      <use xlink:href="#DejaVuSans-2c" transform="translate(63.476562 0)"/>
      <use xlink:href="#DejaVuSans-20" transform="translate(95.263672 0)"/>
      <use xlink:href="#DejaVuSans-43c" transform="translate(127.050781 0)"/>
     </g>
    </g>
   </g>
   <g id="line2d_37">
    <path d="M 42.754022 221.5752 
L 45.694733 220.330756 
L 48.635445 219.086311 
L 51.576156 217.841867 
L 54.516868 216.597422 
L 57.457579 215.352978 
L 60.398291 214.108533 
L 63.339002 212.864089 
L 66.279713 211.619644 
L 69.220425 210.3752 
L 72.161136 209.130756 
L 75.101848 207.886311 
L 78.042559 206.641867 
L 80.983271 205.397422 
L 83.923982 204.152978 
L 86.864694 202.908533 
L 89.805405 201.664089 
L 92.746117 200.419644 
L 95.686828 199.1752 
L 98.62754 197.930756 
L 101.568251 196.686311 
L 104.508962 195.441867 
L 107.449674 194.197422 
L 110.390385 192.952978 
L 113.331097 191.708533 
L 116.271808 190.464089 
L 119.21252 189.219644 
L 122.153231 187.9752 
L 125.093943 186.730756 
L 128.034654 185.486311 
L 130.975366 184.241867 
L 133.916077 182.997422 
L 136.856789 181.752978 
L 139.7975 180.508533 
L 142.738211 179.264089 
L 145.678923 178.019644 
L 148.619634 176.7752 
L 151.560346 175.530756 
L 154.501057 174.286311 
L 157.441769 173.041867 
L 160.38248 171.797422 
L 163.323192 170.552978 
L 166.263903 169.308533 
L 169.204615 168.064089 
L 172.145326 166.819644 
L 175.086038 165.5752 
L 178.026749 164.330756 
L 180.96746 163.086311 
L 183.908172 161.841867 
L 186.848883 160.597422 
L 189.789595 159.352978 
L 192.730306 158.108533 
L 195.671018 156.864089 
L 198.611729 155.619644 
L 201.552441 154.3752 
L 204.493152 153.130756 
L 207.433864 151.886311 
L 210.374575 150.641867 
L 213.315287 149.397422 
L 216.255998 148.152978 
L 219.196709 146.908533 
L 222.137421 145.664089 
L 225.078132 144.419644 
L 228.018844 143.1752 
L 230.959555 141.930756 
L 233.900267 140.686311 
L 236.840978 139.441867 
L 239.78169 138.197422 
L 242.722401 136.952978 
L 245.663113 135.708533 
L 248.603824 134.464089 
L 251.544536 133.219644 
L 254.485247 131.9752 
L 257.425958 130.730756 
L 260.36667 129.486311 
L 263.307381 128.241867 
L 266.248093 126.997422 
L 269.188804 125.752978 
L 272.129516 124.508533 
L 275.070227 123.264089 
L 278.010939 122.019644 
L 280.95165 120.7752 
L 283.892362 119.530756 
L 286.833073 118.286311 
L 289.773785 117.041867 
L 292.714496 115.797422 
L 295.655208 114.552978 
L 298.595919 113.308533 
L 301.53663 112.064089 
L 304.477342 110.819644 
L 307.418053 109.5752 
L 310.358765 108.330756 
L 313.299476 107.086311 
L 316.240188 105.841867 
L 319.180899 104.597422 
L 322.121611 103.352978 
L 325.062322 102.108533 
L 328.003034 100.864089 
L 330.943745 99.619644 
L 333.884457 98.3752 
" clip-path="url(#p45a3ad8d22)" style="fill: none; stroke: #1b6b4a; stroke-width: 2; stroke-linecap: square"/>
   </g>
   <g id="line2d_38">
    <path d="M 42.754022 221.5752 
L 45.694733 219.708533 
L 48.635445 217.841867 
L 51.576156 215.9752 
L 54.516868 214.108533 
L 57.457579 212.241867 
L 60.398291 210.3752 
L 63.339002 208.508533 
L 66.279713 206.641867 
L 69.220425 204.7752 
L 72.161136 202.908533 
L 75.101848 201.041867 
L 78.042559 199.1752 
L 80.983271 197.308533 
L 83.923982 195.441867 
L 86.864694 193.5752 
L 89.805405 191.708533 
L 92.746117 189.841867 
L 95.686828 187.9752 
L 98.62754 186.108533 
L 101.568251 184.241867 
L 104.508962 182.3752 
L 107.449674 180.508533 
L 110.390385 178.641867 
L 113.331097 176.7752 
L 116.271808 174.908533 
L 119.21252 173.041867 
L 122.153231 171.1752 
L 125.093943 169.308533 
L 128.034654 167.441867 
L 130.975366 165.5752 
L 133.916077 163.708533 
L 136.856789 161.841867 
L 139.7975 159.9752 
L 142.738211 158.108533 
L 145.678923 156.241867 
L 148.619634 154.3752 
L 151.560346 152.508533 
L 154.501057 150.641867 
L 157.441769 148.7752 
L 160.38248 146.908533 
L 163.323192 145.041867 
L 166.263903 143.1752 
L 169.204615 141.308533 
L 172.145326 139.441867 
L 175.086038 137.5752 
L 178.026749 135.708533 
L 180.96746 133.841867 
L 183.908172 131.9752 
L 186.848883 130.108533 
L 189.789595 128.241867 
L 192.730306 126.3752 
L 195.671018 124.508533 
L 198.611729 122.641867 
L 201.552441 120.7752 
L 204.493152 118.908533 
L 207.433864 117.041867 
L 210.374575 115.1752 
L 213.315287 113.308533 
L 216.255998 111.441867 
L 219.196709 109.5752 
L 222.137421 107.708533 
L 225.078132 105.841867 
L 228.018844 103.9752 
L 230.959555 102.108533 
L 233.900267 100.241867 
L 236.840978 98.3752 
L 239.78169 96.508533 
L 242.722401 94.641867 
L 245.663113 92.7752 
L 248.603824 90.908533 
L 251.544536 89.041867 
L 254.485247 87.1752 
L 257.425958 85.308533 
L 260.36667 83.441867 
L 263.307381 81.5752 
L 266.248093 79.708533 
L 269.188804 77.841867 
L 272.129516 75.9752 
L 275.070227 74.108533 
L 278.010939 72.241867 
L 280.95165 70.3752 
L 283.892362 68.508533 
L 286.833073 66.641867 
L 289.773785 64.7752 
L 292.714496 62.908533 
L 295.655208 61.041867 
L 298.595919 59.1752 
L 301.53663 57.308533 
L 304.477342 55.441867 
L 307.418053 53.5752 
L 310.358765 51.708533 
L 313.299476 49.841867 
L 316.240188 47.9752 
L 319.180899 46.108533 
L 322.121611 44.241867 
L 325.062322 42.3752 
L 328.003034 40.508533 
L 330.943745 38.641867 
L 333.884457 36.7752 
" clip-path="url(#p45a3ad8d22)" style="fill: none; stroke: #e8913a; stroke-width: 2; stroke-linecap: square"/>
   </g>
   <g id="patch_3">
    <path d="M 28.1975 233.8952 
L 28.1975 12.1352 
" style="fill: none; stroke: #333333; stroke-width: 0.8; stroke-linejoin: miter; stroke-linecap: square"/>
   </g>
   <g id="patch_4">
    <path d="M 362.9975 233.8952 
L 362.9975 12.1352 
" style="fill: none; stroke: #333333; stroke-width: 0.8; stroke-linejoin: miter; stroke-linecap: square"/>
   </g>
   <g id="patch_5">
    <path d="M 28.1975 233.8952 
L 362.9975 233.8952 
" style="fill: none; stroke: #333333; stroke-width: 0.8; stroke-linejoin: miter; stroke-linecap: square"/>
   </g>
   <g id="patch_6">
    <path d="M 28.1975 12.1352 
L 362.9975 12.1352 
" style="fill: none; stroke: #333333; stroke-width: 0.8; stroke-linejoin: miter; stroke-linecap: square"/>
   </g>
   <g id="line2d_39">
    <defs>
     <path id="m3cd829df1e" d="M 0 2 
C 0.530406 2 1.03916 1.789267 1.414214 1.414214 
C 1.789267 1.03916 2 0.530406 2 0 
C 2 -0.530406 1.789267 -1.03916 1.414214 -1.414214 
C 1.03916 -1.789267 0.530406 -2 0 -2 
C -0.530406 -2 -1.03916 -1.789267 -1.414214 -1.414214 
C -1.789267 -1.03916 -2 -0.530406 -2 0 
C -2 0.530406 -1.789267 1.03916 -1.414214 1.414214 
C -1.03916 1.789267 -0.530406 2 0 2 
z
" style="stroke: #1b6b4a"/>
    </defs>
    <g clip-path="url(#p45a3ad8d22)">
     <use xlink:href="#m3cd829df1e" x="42.754022" y="221.5752" style="fill: #1b6b4a; stroke: #1b6b4a"/>
    </g>
   </g>
   <g id="line2d_40">
    <g clip-path="url(#p45a3ad8d22)">
     <use xlink:href="#m3cd829df1e" x="333.884457" y="98.3752" style="fill: #1b6b4a; stroke: #1b6b4a"/>
    </g>
   </g>
   <g id="line2d_41">
    <defs>
     <path id="m663449809b" d="M 0 2 
C 0.530406 2 1.03916 1.789267 1.414214 1.414214 
C 1.789267 1.03916 2 0.530406 2 0 
C 2 -0.530406 1.789267 -1.03916 1.414214 -1.414214 
C 1.03916 -1.789267 0.530406 -2 0 -2 
C -0.530406 -2 -1.03916 -1.789267 -1.414214 -1.414214 
C -1.789267 -1.03916 -2 -0.530406 -2 0 
C -2 0.530406 -1.789267 1.03916 -1.414214 1.414214 
C -1.03916 1.789267 -0.530406 2 0 2 
z
" style="stroke: #e8913a"/>
    </defs>
    <g clip-path="url(#p45a3ad8d22)">
     <use xlink:href="#m663449809b" x="42.754022" y="221.5752" style="fill: #e8913a; stroke: #e8913a"/>
    </g>
   </g>
   <g id="line2d_42">
    <g clip-path="url(#p45a3ad8d22)">
     <use xlink:href="#m663449809b" x="333.884457" y="36.7752" style="fill: #e8913a; stroke: #e8913a"/>
    </g>
   </g>
   <g id="legend_1">
    <g id="patch_7">
     <path d="M 35.8975 53.227075 
L 108.530156 53.227075 
Q 110.730156 53.227075 110.730156 51.027075 
L 110.730156 19.8352 
Q 110.730156 17.6352 108.530156 17.6352 
L 35.8975 17.6352 
Q 33.6975 17.6352 33.6975 19.8352 
L 33.6975 51.027075 
Q 33.6975 53.227075 35.8975 53.227075 
z
" style="fill: #ffffff; opacity: 0.8; stroke: #cccccc; stroke-linejoin: miter"/>
    </g>
    <g id="line2d_43">
     <path d="M 38.0975 26.543481 
L 49.0975 26.543481 
L 60.0975 26.543481 
" style="fill: none; stroke: #1b6b4a; stroke-width: 2; stroke-linecap: square"/>
    </g>
    <g id="text_21">
     <!-- тело 1 -->
     <g transform="translate(68.8975 30.393481) scale(0.11 -0.11)">
      <defs>
       <path id="DejaVuSans-442" d="M 188 3500 
L 3541 3500 
L 3541 3041 
L 2147 3041 
L 2147 0 
L 1581 0 
L 1581 3041 
L 188 3041 
L 188 3500 
z
" transform="scale(0.015625)"/>
       <path id="DejaVuSans-435" d="M 3597 1894 
L 3597 1613 
L 953 1613 
Q 991 1019 1311 708 
Q 1631 397 2203 397 
Q 2534 397 2845 478 
Q 3156 559 3463 722 
L 3463 178 
Q 3153 47 2828 -22 
Q 2503 -91 2169 -91 
Q 1331 -91 842 396 
Q 353 884 353 1716 
Q 353 2575 817 3079 
Q 1281 3584 2069 3584 
Q 2775 3584 3186 3129 
Q 3597 2675 3597 1894 
z
M 3022 2063 
Q 3016 2534 2758 2815 
Q 2500 3097 2075 3097 
Q 1594 3097 1305 2825 
Q 1016 2553 972 2059 
L 3022 2063 
z
" transform="scale(0.015625)"/>
       <path id="DejaVuSans-43b" d="M 238 0 
L 238 478 
Q 806 566 981 959 
Q 1194 1513 1194 2928 
L 1194 3500 
L 3559 3500 
L 3559 0 
L 2984 0 
L 2984 3041 
L 1769 3041 
L 1769 2694 
Q 1769 1344 1494 738 
Q 1200 91 238 0 
z
" transform="scale(0.015625)"/>
       <path id="DejaVuSans-43e" d="M 1959 3097 
Q 1497 3097 1228 2736 
Q 959 2375 959 1747 
Q 959 1119 1226 758 
Q 1494 397 1959 397 
Q 2419 397 2687 759 
Q 2956 1122 2956 1747 
Q 2956 2369 2687 2733 
Q 2419 3097 1959 3097 
z
M 1959 3584 
Q 2709 3584 3137 3096 
Q 3566 2609 3566 1747 
Q 3566 888 3137 398 
Q 2709 -91 1959 -91 
Q 1206 -91 779 398 
Q 353 888 353 1747 
Q 353 2609 779 3096 
Q 1206 3584 1959 3584 
z
" transform="scale(0.015625)"/>
      </defs>
      <use xlink:href="#DejaVuSans-442"/>
      <use xlink:href="#DejaVuSans-435" transform="translate(58.251953 0)"/>
      <use xlink:href="#DejaVuSans-43b" transform="translate(119.775391 0)"/>
      <use xlink:href="#DejaVuSans-43e" transform="translate(183.691406 0)"/>
      <use xlink:href="#DejaVuSans-20" transform="translate(244.873047 0)"/>
      <use xlink:href="#DejaVuSans-31" transform="translate(276.660156 0)"/>
     </g>
    </g>
    <g id="line2d_44">
     <path d="M 38.0975 42.689419 
L 49.0975 42.689419 
L 60.0975 42.689419 
" style="fill: none; stroke: #e8913a; stroke-width: 2; stroke-linecap: square"/>
    </g>
    <g id="text_22">
     <!-- тело 2 -->
     <g transform="translate(68.8975 46.539419) scale(0.11 -0.11)">
      <use xlink:href="#DejaVuSans-442"/>
      <use xlink:href="#DejaVuSans-435" transform="translate(58.251953 0)"/>
      <use xlink:href="#DejaVuSans-43b" transform="translate(119.775391 0)"/>
      <use xlink:href="#DejaVuSans-43e" transform="translate(183.691406 0)"/>
      <use xlink:href="#DejaVuSans-20" transform="translate(244.873047 0)"/>
      <use xlink:href="#DejaVuSans-32" transform="translate(276.660156 0)"/>
     </g>
    </g>
   </g>
  </g>
 </g>
 <defs>
  <clipPath id="p45a3ad8d22">
   <rect x="28.1975" y="12.1352" width="334.8" height="221.76"/>
  </clipPath>
 </defs>
</svg>
